<svg width="16.000000" height="16.000000" viewBox="0 0 16 16" fill="none" xmlns="http://www.w3.org/2000/svg" xmlns:xlink="http://www.w3.org/1999/xlink">
	<defs>
		<clipPath id="clip1_261">
			<rect id="Frame" width="16.000000" height="16.000000" transform="translate(-0.199951 -0.275009)" fill="white" fill-opacity="0"/>
		</clipPath>
	</defs>
	<g clip-path="url(#clip1_261)">
		<path id="Vector" d="M15.8 7.72C15.8 11.71 12.87 15.02 9.04 15.62L9.04 10.03L10.91 10.03L11.26 7.72L9.04 7.72L9.04 6.22C9.04 5.59 9.35 4.97 10.35 4.97L11.36 4.97L11.36 3C11.36 3 10.44 2.85 9.57 2.85C7.74 2.85 6.55 3.95 6.55 5.96L6.55 7.72L4.51 7.72L4.51 10.03L6.55 10.03L6.55 15.62C2.72 15.02 -0.2 11.71 -0.2 7.72C-0.2 3.3 3.38 -0.28 7.8 -0.28C12.21 -0.28 15.8 3.3 15.8 7.72ZM6.55 15.62C6.95 15.69 7.37 15.72 7.8 15.72C7.37 15.72 6.95 15.69 6.55 15.62L6.55 15.62ZM9.04 15.62L9.04 15.62C8.98 15.63 8.92 15.64 8.86 15.65C8.92 15.64 8.98 15.63 9.04 15.62ZM8.86 15.65C8.51 15.7 8.15 15.72 7.8 15.72C8.15 15.72 8.51 15.7 8.86 15.65Z" fill="#000000" fill-opacity="1.000000" fill-rule="nonzero"/>
	</g>
</svg>
