<svg width="16.000000" height="16.000000" viewBox="0 0 16 16" fill="none" xmlns="http://www.w3.org/2000/svg" xmlns:xlink="http://www.w3.org/1999/xlink">
	<defs>
		<clipPath id="clip1_255">
			<rect id="Frame" width="16.000000" height="16.000000" transform="translate(-0.199951 -0.275009)" fill="white" fill-opacity="0"/>
		</clipPath>
	</defs>
	<g clip-path="url(#clip1_255)">
		<path id="Vector" d="M7.79 1.27C9.9 1.27 10.14 1.28 10.98 1.31C11.75 1.35 12.16 1.48 12.44 1.59C12.81 1.73 13.07 1.9 13.35 2.17C13.62 2.45 13.79 2.71 13.93 3.08C14.04 3.36 14.17 3.77 14.21 4.54C14.24 5.37 14.25 5.62 14.25 7.72C14.25 9.83 14.24 10.07 14.21 10.91C14.17 11.67 14.04 12.09 13.93 12.37C13.79 12.74 13.62 13 13.35 13.27C13.07 13.55 12.81 13.72 12.44 13.86C12.16 13.97 11.75 14.1 10.98 14.13C10.14 14.17 9.9 14.18 7.79 14.18C5.69 14.18 5.44 14.17 4.61 14.13C3.84 14.1 3.43 13.97 3.15 13.86C2.78 13.72 2.52 13.55 2.24 13.27C1.97 13 1.8 12.74 1.66 12.37C1.55 12.09 1.42 11.67 1.38 10.91C1.35 10.07 1.34 9.83 1.34 7.72C1.34 5.62 1.35 5.37 1.38 4.54C1.42 3.77 1.55 3.36 1.66 3.08C1.8 2.71 1.97 2.45 2.24 2.17C2.52 1.9 2.78 1.73 3.15 1.59C3.43 1.48 3.84 1.35 4.61 1.31C5.44 1.27 5.69 1.27 7.79 1.27ZM7.79 -0.15C5.66 -0.15 5.39 -0.14 4.55 -0.11C3.71 -0.07 3.14 0.07 2.64 0.26C2.12 0.46 1.68 0.73 1.24 1.17C0.81 1.61 0.54 2.05 0.33 2.56C0.14 3.06 0.01 3.64 -0.03 4.48C-0.07 5.31 -0.08 5.58 -0.08 7.72C-0.08 9.86 -0.07 10.13 -0.03 10.97C0.01 11.81 0.14 12.38 0.33 12.88C0.53 13.4 0.81 13.84 1.24 14.27C1.68 14.71 2.12 14.98 2.64 15.18C3.14 15.38 3.71 15.51 4.55 15.55C5.39 15.59 5.66 15.6 7.8 15.6C9.94 15.6 10.2 15.59 11.05 15.55C11.88 15.51 12.45 15.38 12.96 15.18C13.48 14.98 13.91 14.71 14.35 14.27C14.79 13.84 15.06 13.4 15.26 12.88C15.45 12.38 15.59 11.81 15.63 10.97C15.66 10.13 15.67 9.86 15.67 7.72C15.67 5.58 15.66 5.31 15.63 4.47C15.59 3.64 15.45 3.06 15.26 2.56C15.06 2.04 14.79 1.6 14.35 1.17C13.91 0.73 13.47 0.46 12.96 0.26C12.46 0.06 11.89 -0.07 11.05 -0.11C10.2 -0.14 9.93 -0.15 7.79 -0.15Z" fill="#444444" fill-opacity="1.000000" fill-rule="nonzero"/>
		<path id="Vector" d="M7.8 3.68C6.73 3.69 5.71 4.12 4.96 4.88C4.22 5.63 3.8 6.66 3.8 7.72C3.8 8.78 4.22 9.81 4.96 10.56C5.71 11.32 6.73 11.75 7.8 11.76C10.03 11.76 11.84 9.95 11.84 7.72C11.84 5.49 10.03 3.68 7.79 3.68L7.8 3.68ZM7.8 10.35C7.1 10.35 6.43 10.07 5.94 9.58C5.45 9.08 5.17 8.42 5.17 7.72C5.17 7.02 5.45 6.36 5.94 5.86C6.43 5.37 7.1 5.1 7.8 5.1C8.49 5.1 9.16 5.37 9.65 5.86C10.14 6.36 10.42 7.02 10.42 7.72C10.42 8.42 10.14 9.08 9.65 9.58C9.16 10.07 8.49 10.35 7.8 10.35ZM12.94 3.52C12.94 3.64 12.92 3.76 12.87 3.88C12.82 3.99 12.75 4.1 12.67 4.18C12.58 4.27 12.47 4.34 12.36 4.39C12.25 4.44 12.12 4.46 12 4.46C11.88 4.46 11.75 4.44 11.64 4.39C11.52 4.34 11.42 4.27 11.33 4.19C11.24 4.1 11.17 3.99 11.13 3.88C11.08 3.76 11.06 3.64 11.06 3.52C11.05 3.27 11.15 3.03 11.33 2.85C11.51 2.67 11.75 2.57 12 2.57C12.25 2.57 12.49 2.67 12.67 2.85C12.84 3.03 12.94 3.27 12.94 3.52Z" fill="#444444" fill-opacity="1.000000" fill-rule="nonzero"/>
	</g>
</svg>
