<svg width="21.000000" height="20.000000" viewBox="0 0 21 20" fill="none" xmlns="http://www.w3.org/2000/svg" xmlns:xlink="http://www.w3.org/1999/xlink">
	<defs/>
	<path id="Vector" d="M15.26 12.71C14.36 14.05 13.09 15.09 11.61 15.7C10.12 16.32 8.49 16.48 6.91 16.17C5.34 15.85 3.89 15.08 2.75 13.94C1.61 12.8 0.84 11.36 0.53 9.78C0.21 8.2 0.37 6.57 0.99 5.08C1.6 3.6 2.65 2.33 3.98 1.43C5.32 0.54 6.89 0.06 8.5 0.06C9.57 0.06 10.62 0.28 11.61 0.68C12.6 1.09 13.49 1.69 14.25 2.45C15 3.2 15.6 4.1 16.01 5.08C16.42 6.07 16.63 7.13 16.63 8.19C16.63 9.8 16.15 11.37 15.26 12.71ZM19.62 19.32L14.34 14.07" stroke="#000000" stroke-opacity="1.000000" stroke-width="0.875000" stroke-linejoin="round" stroke-linecap="round"/>
</svg>
