<?xml version="1.0"?>
<svg xmlns="http://www.w3.org/2000/svg" xmlns:v="https://svgstorm.com" viewBox="0 0 1024 1024" width="250.000000" height="112.000000" style="background-color:transparent;">
  <g fill="None" fill-opacity="0.0" stroke="#FEFEFE" stroke-opacity="1.00" stroke-width="0.3">
    <path d=" M 0.00 1024.00  L 1024.00 1024.00 L 1024.00 0.00 L 0.00 0.00 L 0.00 1024.00 M 877.00 491.00  C 877.40 493.49 877.29 495.62 877.00 498.00 C 876.33 536.08 839.98 559.00 805.00 559.00 C 801.80 559.31 798.16 559.38 795.00 559.00 C 770.12 558.50 756.65 537.07 763.00 513.00 C 777.29 511.54 791.57 509.99 806.00 509.00 C 798.45 524.68 816.72 535.74 828.25 522.25 C 839.78 508.75 827.30 498.99 813.99 497.01 C 800.68 495.02 790.60 489.26 780.75 480.25 C 770.90 471.23 771.87 453.50 775.93 441.93 C 779.98 430.35 785.62 420.85 796.08 413.08 C 806.54 405.31 818.57 400.29 832.00 399.00 C 845.43 397.71 861.37 396.44 873.08 404.92 C 884.79 413.39 886.22 429.27 885.00 443.00 C 870.91 443.95 857.12 446.10 843.00 447.00 C 850.13 427.06 821.27 423.05 817.68 440.68 C 814.09 458.31 836.74 459.52 849.02 462.98 C 861.31 466.43 877.68 475.52 877.00 491.00 M 216.00 402.00  C 211.49 460.03 200.71 518.66 194.00 577.00 C 211.43 574.95 229.79 572.25 247.00 572.00 C 245.51 579.31 245.57 587.77 244.00 595.00 C 242.44 602.24 244.75 613.76 236.00 614.00 C 227.25 614.24 219.45 615.60 211.00 616.00 C 202.55 616.40 195.25 618.56 186.98 618.98 C 178.70 619.39 170.09 620.48 162.00 621.00 C 153.91 621.52 146.68 623.96 139.00 623.00 C 149.38 551.11 158.97 479.01 169.00 407.00 C 184.82 406.00 200.56 404.48 216.00 402.00 M 922.00 405.00  C 942.25 408.80 936.11 445.48 915.00 441.00 C 893.89 436.52 900.83 401.02 922.00 405.00 M 637.00 526.00  C 636.60 521.91 636.61 517.02 637.00 513.00 C 637.00 486.07 645.32 455.74 663.25 435.25 C 681.17 414.76 712.54 403.71 740.07 415.93 C 767.60 428.14 761.76 471.82 757.00 496.00 C 732.71 498.49 708.37 500.76 684.00 503.00 C 683.42 512.45 674.46 537.12 688.22 540.78 C 701.98 544.43 709.37 525.19 712.00 516.00 C 726.17 515.71 739.70 512.84 754.00 513.00 C 747.57 541.97 729.21 562.53 699.99 569.99 C 670.78 577.45 631.13 563.84 637.00 526.00 M 592.00 473.00  C 596.01 459.31 583.60 451.41 573.75 458.75 C 563.91 466.09 563.50 479.01 574.08 482.92 C 584.65 486.84 595.54 487.51 605.07 491.93 C 614.60 496.34 622.25 501.48 625.32 511.68 C 628.40 521.87 624.98 536.85 621.08 546.08 C 617.17 555.30 611.91 562.57 603.75 568.75 C 595.60 574.93 586.76 579.08 576.78 581.78 C 566.80 584.47 551.05 585.55 541.00 584.00 C 530.95 582.45 520.44 577.79 516.23 568.77 C 512.02 559.75 508.68 540.75 520.00 539.00 C 531.32 537.26 544.69 537.33 556.00 535.00 C 550.66 544.89 557.87 557.11 568.00 554.00 C 578.14 550.89 582.41 544.68 582.00 535.00 C 581.59 525.32 568.35 525.75 561.33 522.67 C 554.30 519.59 544.21 518.17 537.31 513.69 C 530.40 509.22 524.46 502.75 524.01 493.99 C 523.55 485.23 523.63 472.12 527.32 464.32 C 531.01 456.53 534.38 450.66 540.75 444.75 C 547.12 438.85 552.24 434.74 560.23 431.23 C 568.22 427.72 577.93 425.72 587.00 425.00 C 596.08 424.29 607.71 425.62 615.68 429.32 C 623.65 433.02 628.23 439.39 630.32 447.68 C 632.42 455.97 634.42 470.82 623.00 470.00 C 611.58 469.18 603.33 474.00 592.00 473.00 M 453.00 591.00  C 452.85 586.79 455.45 581.34 454.00 578.00 C 444.61 593.01 430.79 596.27 414.00 598.00 C 397.21 599.73 381.83 586.77 382.02 569.98 C 382.22 553.19 387.29 536.73 398.25 525.25 C 409.21 513.77 424.40 509.11 437.22 504.22 C 450.05 499.34 473.22 493.55 468.00 475.00 C 462.78 456.45 434.41 478.93 438.00 492.00 C 424.36 491.77 411.48 494.55 398.00 495.00 C 399.64 485.47 403.74 475.94 408.77 467.77 C 413.80 459.60 418.70 453.32 427.25 448.25 C 435.79 443.17 445.63 440.30 455.67 438.67 C 465.71 437.04 481.02 435.87 490.67 439.33 C 500.33 442.79 507.37 447.69 509.93 458.07 C 512.48 468.46 510.48 482.27 509.00 493.00 C 507.52 503.73 505.64 516.22 504.00 527.00 C 502.36 537.78 501.51 549.71 499.07 560.07 C 496.64 570.44 501.67 587.87 489.00 588.00 C 476.33 588.13 465.73 591.52 453.00 591.00 M 380.00 504.00  C 365.74 505.89 351.01 506.16 337.00 509.00 C 343.19 498.39 334.45 479.65 322.78 486.78 C 311.11 493.91 312.90 503.85 309.07 515.07 C 305.25 526.29 306.50 540.83 303.22 552.22 C 299.94 563.61 304.61 583.12 317.69 576.69 C 330.78 570.26 328.35 559.05 332.00 548.00 C 345.98 546.62 360.03 545.49 374.00 544.00 C 370.91 564.52 362.94 588.08 343.25 599.25 C 323.57 610.43 296.61 617.27 274.77 605.23 C 252.93 593.19 256.39 560.11 259.98 537.98 C 263.56 515.85 268.61 494.76 284.25 476.25 C 299.90 457.75 322.16 452.38 347.00 453.00 C 371.85 453.62 388.90 478.64 380.00 504.00 Z" data-index="0"/>
  </g>
  <g fill="None" fill-opacity="0.0" stroke="#000000" stroke-opacity="1.00" stroke-width="0.3">
    <path d=" M 795.00 559.00  C 798.33 559.07 801.67 559.00 805.00 559.00 C 839.98 559.00 876.33 536.08 877.00 498.00 C 877.04 495.68 877.11 493.31 877.00 491.00 C 877.68 475.52 861.31 466.43 849.02 462.98 C 836.74 459.52 814.09 458.31 817.68 440.68 C 821.27 423.05 850.13 427.06 843.00 447.00 C 857.12 446.10 870.91 443.95 885.00 443.00 C 886.22 429.27 884.79 413.39 873.08 404.92 C 861.37 396.44 845.43 397.71 832.00 399.00 C 818.57 400.29 806.54 405.31 796.08 413.08 C 785.62 420.85 779.98 430.35 775.93 441.93 C 771.87 453.50 770.90 471.23 780.75 480.25 C 790.60 489.26 800.68 495.02 813.99 497.01 C 827.30 498.99 839.78 508.75 828.25 522.25 C 816.72 535.74 798.45 524.68 806.00 509.00 C 791.57 509.99 777.29 511.54 763.00 513.00 C 756.65 537.07 770.12 558.50 795.00 559.00 Z" data-index="1"/>
  </g>
  <g fill="None" fill-opacity="0.0" stroke="#000000" stroke-opacity="1.00" stroke-width="0.3">
    <path d=" M 216.00 402.00  C 200.56 404.48 184.82 406.00 169.00 407.00 C 158.97 479.01 149.38 551.11 139.00 623.00 C 146.68 623.96 153.91 621.52 162.00 621.00 C 170.09 620.48 178.70 619.39 186.98 618.98 C 195.25 618.56 202.55 616.40 211.00 616.00 C 219.45 615.60 227.25 614.24 236.00 614.00 C 244.75 613.76 242.44 602.24 244.00 595.00 C 245.57 587.77 245.51 579.31 247.00 572.00 C 229.79 572.25 211.43 574.95 194.00 577.00 C 200.71 518.66 211.49 460.03 216.00 402.00 Z" data-index="2"/>
  </g>
  <g fill="None" fill-opacity="0.0" stroke="#000001" stroke-opacity="1.00" stroke-width="0.3">
    <path d=" M 922.00 405.00  C 900.83 401.02 893.89 436.52 915.00 441.00 C 936.11 445.48 942.25 408.80 922.00 405.00 M 922.00 409.00  C 936.21 412.04 930.62 441.88 915.33 436.67 C 900.04 431.46 906.34 405.65 922.00 409.00 Z" data-index="3"/>
  </g>
  <g fill="None" fill-opacity="0.0" stroke="#F0F0F0" stroke-opacity="1.00" stroke-width="0.3">
    <path d=" M 922.00 409.00  C 906.34 405.65 900.04 431.46 915.33 436.67 C 930.62 441.88 936.21 412.04 922.00 409.00 M 922.00 424.00  C 925.04 425.79 925.05 429.82 926.00 433.00 C 919.26 434.81 922.80 424.14 916.00 425.00 C 915.43 427.79 917.87 433.87 913.00 433.00 C 913.00 426.33 913.00 419.67 913.00 413.00 C 920.44 409.80 931.92 419.38 922.00 424.00 Z" data-index="4"/>
  </g>
  <g fill="None" fill-opacity="0.0" stroke="#000000" stroke-opacity="1.00" stroke-width="0.3">
    <path d=" M 637.00 513.00  C 637.00 517.33 637.00 521.67 637.00 526.00 C 631.13 563.84 670.78 577.45 699.99 569.99 C 729.21 562.53 747.57 541.97 754.00 513.00 C 739.70 512.84 726.17 515.71 712.00 516.00 C 709.37 525.19 701.98 544.43 688.22 540.78 C 674.46 537.12 683.42 512.45 684.00 503.00 C 708.37 500.76 732.71 498.49 757.00 496.00 C 761.76 471.82 767.60 428.14 740.07 415.93 C 712.54 403.71 681.17 414.76 663.25 435.25 C 645.32 455.74 637.00 486.07 637.00 513.00 M 717.00 452.00  C 717.29 454.01 717.14 456.14 717.00 458.00 C 717.00 463.28 716.30 467.83 716.00 473.00 C 706.41 474.28 696.59 474.64 687.00 476.00 C 688.25 466.04 692.03 457.63 696.92 448.92 C 701.80 440.21 718.47 438.88 717.00 452.00 Z" data-index="5" style="opacity: 1;"/>
  </g>
  <g fill="None" fill-opacity="0.0" stroke="#020202" stroke-opacity="1.00" stroke-width="0.3">
    <path d=" M 922.00 424.00  C 931.92 419.38 920.44 409.80 913.00 413.00 C 913.00 419.67 913.00 426.33 913.00 433.00 C 917.87 433.87 915.43 427.79 916.00 425.00 C 922.80 424.14 919.26 434.81 926.00 433.00 C 925.05 429.82 925.04 425.79 922.00 424.00 M 921.00 417.00  C 922.86 418.86 918.90 424.29 916.33 421.67 C 913.75 419.04 918.69 414.69 921.00 417.00 Z" data-index="6"/>
  </g>
  <g fill="None" fill-opacity="0.0" stroke="#F3F3F4" stroke-opacity="1.00" stroke-width="0.3">
    <path d=" M 921.00 417.00  C 918.69 414.69 913.75 419.04 916.33 421.67 C 918.90 424.29 922.86 418.86 921.00 417.00 Z" data-index="7"/>
  </g>
  <g fill="None" fill-opacity="0.0" stroke="#000000" stroke-opacity="1.00" stroke-width="0.3">
    <path d=" M 592.00 473.00  C 603.33 474.00 611.58 469.18 623.00 470.00 C 634.42 470.82 632.42 455.97 630.32 447.68 C 628.23 439.39 623.65 433.02 615.68 429.32 C 607.71 425.62 596.08 424.29 587.00 425.00 C 577.93 425.72 568.22 427.72 560.23 431.23 C 552.24 434.74 547.12 438.85 540.75 444.75 C 534.38 450.66 531.01 456.53 527.32 464.32 C 523.63 472.12 523.55 485.23 524.01 493.99 C 524.46 502.75 530.40 509.22 537.31 513.69 C 544.21 518.17 554.30 519.59 561.33 522.67 C 568.35 525.75 581.59 525.32 582.00 535.00 C 582.41 544.68 578.14 550.89 568.00 554.00 C 557.87 557.11 550.66 544.89 556.00 535.00 C 544.69 537.33 531.32 537.26 520.00 539.00 C 508.68 540.75 512.02 559.75 516.23 568.77 C 520.44 577.79 530.95 582.45 541.00 584.00 C 551.05 585.55 566.80 584.47 576.78 581.78 C 586.76 579.08 595.60 574.93 603.75 568.75 C 611.91 562.57 617.17 555.30 621.08 546.08 C 624.98 536.85 628.40 521.87 625.32 511.68 C 622.25 501.48 614.60 496.34 605.07 491.93 C 595.54 487.51 584.65 486.84 574.08 482.92 C 563.50 479.01 563.91 466.09 573.75 458.75 C 583.60 451.41 596.01 459.31 592.00 473.00 Z" data-index="8"/>
  </g>
  <g fill="None" fill-opacity="0.0" stroke="#000000" stroke-opacity="1.00" stroke-width="0.3">
    <path d=" M 453.00 591.00  C 465.73 591.52 476.33 588.13 489.00 588.00 C 501.67 587.87 496.64 570.44 499.07 560.07 C 501.51 549.71 502.36 537.78 504.00 527.00 C 505.64 516.22 507.52 503.73 509.00 493.00 C 510.48 482.27 512.48 468.46 509.93 458.07 C 507.37 447.69 500.33 442.79 490.67 439.33 C 481.02 435.87 465.71 437.04 455.67 438.67 C 445.63 440.30 435.79 443.17 427.25 448.25 C 418.70 453.32 413.80 459.60 408.77 467.77 C 403.74 475.94 399.64 485.47 398.00 495.00 C 411.48 494.55 424.36 491.77 438.00 492.00 C 434.41 478.93 462.78 456.45 468.00 475.00 C 473.22 493.55 450.05 499.34 437.22 504.22 C 424.40 509.11 409.21 513.77 398.25 525.25 C 387.29 536.73 382.22 553.19 382.02 569.98 C 381.83 586.77 397.21 599.73 414.00 598.00 C 430.79 596.27 444.61 593.01 454.00 578.00 C 455.45 581.34 452.85 586.79 453.00 591.00 M 463.00 519.00  C 461.98 528.82 458.28 542.47 455.23 551.23 C 452.18 559.99 437.27 569.76 429.77 562.23 C 422.27 554.70 431.24 539.35 437.75 533.75 C 444.26 528.16 454.63 521.82 463.00 519.00 Z" data-index="9"/>
  </g>
  <g fill="None" fill-opacity="0.0" stroke="#FBFBFB" stroke-opacity="1.00" stroke-width="0.3">
    <path d=" M 717.00 458.00  C 717.00 456.01 717.09 453.99 717.00 452.00 C 718.47 438.88 701.80 440.21 696.92 448.92 C 692.03 457.63 688.25 466.04 687.00 476.00 C 696.59 474.64 706.41 474.28 716.00 473.00 C 716.30 467.83 717.00 463.28 717.00 458.00 Z" data-index="10"/>
  </g>
  <g fill="None" fill-opacity="0.0" stroke="#818181" stroke-opacity="1.00" stroke-width="0.3">
    <path d=" M 717.00 458.00  C 717.14 456.14 717.29 454.01 717.00 452.00 C 717.09 453.99 717.00 456.01 717.00 458.00 Z" data-index="11"/>
  </g>
  <g fill="None" fill-opacity="0.0" stroke="#000000" stroke-opacity="1.00" stroke-width="0.3">
    <path d=" M 380.00 504.00  C 388.90 478.64 371.85 453.62 347.00 453.00 C 322.16 452.38 299.90 457.75 284.25 476.25 C 268.61 494.76 263.56 515.85 259.98 537.98 C 256.39 560.11 252.93 593.19 274.77 605.23 C 296.61 617.27 323.57 610.43 343.25 599.25 C 362.94 588.08 370.91 564.52 374.00 544.00 C 360.03 545.49 345.98 546.62 332.00 548.00 C 328.35 559.05 330.78 570.26 317.69 576.69 C 304.61 583.12 299.94 563.61 303.22 552.22 C 306.50 540.83 305.25 526.29 309.07 515.07 C 312.90 503.85 311.11 493.91 322.78 486.78 C 334.45 479.65 343.19 498.39 337.00 509.00 C 351.01 506.16 365.74 505.89 380.00 504.00 Z" data-index="12"/>
  </g>
  <g fill="None" fill-opacity="0.0" stroke="#858586" stroke-opacity="1.00" stroke-width="0.3">
    <path d=" M 877.00 498.00  C 877.29 495.62 877.40 493.49 877.00 491.00 C 877.11 493.31 877.04 495.68 877.00 498.00 Z" data-index="13"/>
  </g>
  <g fill="None" fill-opacity="0.0" stroke="#686769" stroke-opacity="1.00" stroke-width="0.3">
    <path d=" M 637.00 526.00  C 637.00 521.67 637.00 517.33 637.00 513.00 C 636.61 517.02 636.60 521.91 637.00 526.00 Z" data-index="14"/>
  </g>
  <g fill="None" fill-opacity="0.0" stroke="#FCFCFC" stroke-opacity="1.00" stroke-width="0.3">
    <path d=" M 463.00 519.00  C 454.63 521.82 444.26 528.16 437.75 533.75 C 431.24 539.35 422.27 554.70 429.77 562.23 C 437.27 569.76 452.18 559.99 455.23 551.23 C 458.28 542.47 461.98 528.82 463.00 519.00 Z" data-index="15"/>
  </g>
  <g fill="None" fill-opacity="0.0" stroke="#6D6D6C" stroke-opacity="1.00" stroke-width="0.3">
    <path d=" M 805.00 559.00  C 801.67 559.00 798.33 559.07 795.00 559.00 C 798.16 559.38 801.80 559.31 805.00 559.00 Z" data-index="16"/>
  </g>
  <g fill="#FEFEFE" fill-opacity="1.00" stroke="None">

</g>
  <g fill="#000000" fill-opacity="1.00" stroke="None">
    <path d=" M 795.00 559.00  C 798.33 559.07 801.67 559.00 805.00 559.00 C 839.98 559.00 876.33 536.08 877.00 498.00 C 877.04 495.68 877.11 493.31 877.00 491.00 C 877.68 475.52 861.31 466.43 849.02 462.98 C 836.74 459.52 814.09 458.31 817.68 440.68 C 821.27 423.05 850.13 427.06 843.00 447.00 C 857.12 446.10 870.91 443.95 885.00 443.00 C 886.22 429.27 884.79 413.39 873.08 404.92 C 861.37 396.44 845.43 397.71 832.00 399.00 C 818.57 400.29 806.54 405.31 796.08 413.08 C 785.62 420.85 779.98 430.35 775.93 441.93 C 771.87 453.50 770.90 471.23 780.75 480.25 C 790.60 489.26 800.68 495.02 813.99 497.01 C 827.30 498.99 839.78 508.75 828.25 522.25 C 816.72 535.74 798.45 524.68 806.00 509.00 C 791.57 509.99 777.29 511.54 763.00 513.00 C 756.65 537.07 770.12 558.50 795.00 559.00 Z" data-index="18" style="opacity: 1;"/>
  </g>
  <g fill="#000000" fill-opacity="1.00" stroke="None">
    <path d=" M 216.00 402.00  C 200.56 404.48 184.82 406.00 169.00 407.00 C 158.97 479.01 149.38 551.11 139.00 623.00 C 146.68 623.96 153.91 621.52 162.00 621.00 C 170.09 620.48 178.70 619.39 186.98 618.98 C 195.25 618.56 202.55 616.40 211.00 616.00 C 219.45 615.60 227.25 614.24 236.00 614.00 C 244.75 613.76 242.44 602.24 244.00 595.00 C 245.57 587.77 245.51 579.31 247.00 572.00 C 229.79 572.25 211.43 574.95 194.00 577.00 C 200.71 518.66 211.49 460.03 216.00 402.00 Z" data-index="19"/>
  </g>
  <g fill="#000001" fill-opacity="1.00" stroke="None">
    <path d=" M 922.00 405.00  C 900.83 401.02 893.89 436.52 915.00 441.00 C 936.11 445.48 942.25 408.80 922.00 405.00 M 922.00 409.00  C 936.21 412.04 930.62 441.88 915.33 436.67 C 900.04 431.46 906.34 405.65 922.00 409.00 Z" data-index="20" style="opacity: 1;"/>
  </g>
  <g fill="#F0F0F0" fill-opacity="1.00" stroke="None">

</g>
  <g fill="#000000" fill-opacity="1.00" stroke="None">
    <path d=" M 637.00 513.00  C 637.00 517.33 637.00 521.67 637.00 526.00 C 631.13 563.84 670.78 577.45 699.99 569.99 C 729.21 562.53 747.57 541.97 754.00 513.00 C 739.70 512.84 726.17 515.71 712.00 516.00 C 709.37 525.19 701.98 544.43 688.22 540.78 C 674.46 537.12 683.42 512.45 684.00 503.00 C 708.37 500.76 732.71 498.49 757.00 496.00 C 761.76 471.82 767.60 428.14 740.07 415.93 C 712.54 403.71 681.17 414.76 663.25 435.25 C 645.32 455.74 637.00 486.07 637.00 513.00 M 717.00 452.00  C 717.29 454.01 717.14 456.14 717.00 458.00 C 717.00 463.28 716.30 467.83 716.00 473.00 C 706.41 474.28 696.59 474.64 687.00 476.00 C 688.25 466.04 692.03 457.63 696.92 448.92 C 701.80 440.21 718.47 438.88 717.00 452.00 Z" data-index="22" style="opacity: 1;"/>
  </g>
  <g fill="#020202" fill-opacity="1.00" stroke="None">
    <path d=" M 922.00 424.00  C 931.92 419.38 920.44 409.80 913.00 413.00 C 913.00 419.67 913.00 426.33 913.00 433.00 C 917.87 433.87 915.43 427.79 916.00 425.00 C 922.80 424.14 919.26 434.81 926.00 433.00 C 925.05 429.82 925.04 425.79 922.00 424.00 M 921.00 417.00  C 922.86 418.86 918.90 424.29 916.33 421.67 C 913.75 419.04 918.69 414.69 921.00 417.00 Z" data-index="23" style="opacity: 1;"/>
  </g>
  <g fill="#F3F3F4" fill-opacity="1.00" stroke="None">

</g>
  <g fill="#000000" fill-opacity="1.00" stroke="None">
    <path d=" M 592.00 473.00  C 603.33 474.00 611.58 469.18 623.00 470.00 C 634.42 470.82 632.42 455.97 630.32 447.68 C 628.23 439.39 623.65 433.02 615.68 429.32 C 607.71 425.62 596.08 424.29 587.00 425.00 C 577.93 425.72 568.22 427.72 560.23 431.23 C 552.24 434.74 547.12 438.85 540.75 444.75 C 534.38 450.66 531.01 456.53 527.32 464.32 C 523.63 472.12 523.55 485.23 524.01 493.99 C 524.46 502.75 530.40 509.22 537.31 513.69 C 544.21 518.17 554.30 519.59 561.33 522.67 C 568.35 525.75 581.59 525.32 582.00 535.00 C 582.41 544.68 578.14 550.89 568.00 554.00 C 557.87 557.11 550.66 544.89 556.00 535.00 C 544.69 537.33 531.32 537.26 520.00 539.00 C 508.68 540.75 512.02 559.75 516.23 568.77 C 520.44 577.79 530.95 582.45 541.00 584.00 C 551.05 585.55 566.80 584.47 576.78 581.78 C 586.76 579.08 595.60 574.93 603.75 568.75 C 611.91 562.57 617.17 555.30 621.08 546.08 C 624.98 536.85 628.40 521.87 625.32 511.68 C 622.25 501.48 614.60 496.34 605.07 491.93 C 595.54 487.51 584.65 486.84 574.08 482.92 C 563.50 479.01 563.91 466.09 573.75 458.75 C 583.60 451.41 596.01 459.31 592.00 473.00 Z" data-index="25" style="opacity: 1;"/>
  </g>
  <g fill="#000000" fill-opacity="1.00" stroke="None">
    <path d=" M 453.00 591.00  C 465.73 591.52 476.33 588.13 489.00 588.00 C 501.67 587.87 496.64 570.44 499.07 560.07 C 501.51 549.71 502.36 537.78 504.00 527.00 C 505.64 516.22 507.52 503.73 509.00 493.00 C 510.48 482.27 512.48 468.46 509.93 458.07 C 507.37 447.69 500.33 442.79 490.67 439.33 C 481.02 435.87 465.71 437.04 455.67 438.67 C 445.63 440.30 435.79 443.17 427.25 448.25 C 418.70 453.32 413.80 459.60 408.77 467.77 C 403.74 475.94 399.64 485.47 398.00 495.00 C 411.48 494.55 424.36 491.77 438.00 492.00 C 434.41 478.93 462.78 456.45 468.00 475.00 C 473.22 493.55 450.05 499.34 437.22 504.22 C 424.40 509.11 409.21 513.77 398.25 525.25 C 387.29 536.73 382.22 553.19 382.02 569.98 C 381.83 586.77 397.21 599.73 414.00 598.00 C 430.79 596.27 444.61 593.01 454.00 578.00 C 455.45 581.34 452.85 586.79 453.00 591.00 M 463.00 519.00  C 461.98 528.82 458.28 542.47 455.23 551.23 C 452.18 559.99 437.27 569.76 429.77 562.23 C 422.27 554.70 431.24 539.35 437.75 533.75 C 444.26 528.16 454.63 521.82 463.00 519.00 Z" data-index="26" style="opacity: 1;"/>
  </g>
  <g fill="#FBFBFB" fill-opacity="1.00" stroke="None">

</g>
  <g fill="#818181" fill-opacity="1.00" stroke="None">
    <path d=" M 717.00 458.00  C 717.14 456.14 717.29 454.01 717.00 452.00 C 717.09 453.99 717.00 456.01 717.00 458.00 Z" data-index="28"/>
  </g>
  <g fill="#000000" fill-opacity="1.00" stroke="None">
    <path d=" M 380.00 504.00  C 388.90 478.64 371.85 453.62 347.00 453.00 C 322.16 452.38 299.90 457.75 284.25 476.25 C 268.61 494.76 263.56 515.85 259.98 537.98 C 256.39 560.11 252.93 593.19 274.77 605.23 C 296.61 617.27 323.57 610.43 343.25 599.25 C 362.94 588.08 370.91 564.52 374.00 544.00 C 360.03 545.49 345.98 546.62 332.00 548.00 C 328.35 559.05 330.78 570.26 317.69 576.69 C 304.61 583.12 299.94 563.61 303.22 552.22 C 306.50 540.83 305.25 526.29 309.07 515.07 C 312.90 503.85 311.11 493.91 322.78 486.78 C 334.45 479.65 343.19 498.39 337.00 509.00 C 351.01 506.16 365.74 505.89 380.00 504.00 Z" data-index="29"/>
  </g>
  <g fill="#858586" fill-opacity="1.00" stroke="None">
    <path d=" M 877.00 498.00  C 877.29 495.62 877.40 493.49 877.00 491.00 C 877.11 493.31 877.04 495.68 877.00 498.00 Z" data-index="30"/>
  </g>
  <g fill="#686769" fill-opacity="1.00" stroke="None">
    <path d=" M 637.00 526.00  C 637.00 521.67 637.00 517.33 637.00 513.00 C 636.61 517.02 636.60 521.91 637.00 526.00 Z" data-index="31"/>
  </g>
  <g fill="#FCFCFC" fill-opacity="1.00" stroke="None">

</g>
  <g fill="#6D6D6C" fill-opacity="1.00" stroke="None">
    <path d=" M 805.00 559.00  C 801.67 559.00 798.33 559.07 795.00 559.00 C 798.16 559.38 801.80 559.31 805.00 559.00 Z" data-index="33"/>
  </g>
</svg>
