<svg xmlns="http://www.w3.org/2000/svg" version="1.1" width="512" height="512" x="0" y="0" viewBox="0 0 512 512" style="enable-background:new 0 0 512 512" xml:space="preserve" class=""><g><circle cx="256" cy="256" r="256" fill="#6fc2e5" opacity="1" data-original="#6fc2e5"></circle><path fill="#f6c752" d="M512 255.91v.09c0 141.38-114.62 256-256 256A256 256 0 0 1 0 256v-.09z" opacity="1" data-original="#f6c752"></path><path fill="#3586cb" d="M512 255.91v.09H0v-.09A256 256 0 0 1 256 0c141.35 0 256 114.56 256 255.91z" opacity="1" data-original="#3586cb" class=""></path><path fill="#f7bb38" d="M287.76 510A256 256 0 0 1 0 256v-.09h63.55v.09a256 256 0 0 0 224.21 254z" opacity="1" data-original="#f7bb38"></path><path fill="#366fca" d="M287.76 2A255.86 255.86 0 0 0 63.55 256H0v-.09A256.13 256.13 0 0 1 287.76 2z" opacity="1" data-original="#366fca"></path><g fill="#f6d372"><circle cx="442.44" cy="370.72" r="16.28" fill="#f6d372" opacity="1" data-original="#f6d372"></circle><circle cx="466.42" cy="346.74" r="11.53" fill="#f6d372" opacity="1" data-original="#f6d372"></circle></g></g></svg>