<svg width="16.000000" height="14.000000" viewBox="0 0 16 14" fill="none" xmlns="http://www.w3.org/2000/svg" xmlns:xlink="http://www.w3.org/1999/xlink">
	<defs/>
	<path id="Vector" d="M-0.35 11.14C-0.35 11.77 -0.15 12.3 0.26 12.74C0.68 13.17 1.18 13.39 1.77 13.39L13.16 13.39C13.75 13.39 14.25 13.17 14.66 12.74C15.08 12.3 15.28 11.77 15.28 11.14L15.28 2.08C15.28 1.45 15.07 0.92 14.66 0.47C14.24 0.02 13.74 -0.21 13.16 -0.21L1.77 -0.21C1.19 -0.21 0.69 0.02 0.27 0.47C-0.15 0.92 -0.35 1.45 -0.35 2.08L-0.35 11.14ZM5.33 9.5L5.33 3.72C5.33 3.66 5.35 3.61 5.38 3.58C5.41 3.57 5.43 3.57 5.45 3.57L5.51 3.58L10.96 6.48C10.99 6.51 11.01 6.55 11.01 6.6C11.01 6.64 10.99 6.67 10.96 6.7L5.51 9.6C5.49 9.62 5.48 9.63 5.46 9.63C5.42 9.63 5.4 9.62 5.38 9.6C5.35 9.57 5.33 9.54 5.33 9.5Z" fill="#444444" fill-opacity="1.000000" fill-rule="nonzero"/>
</svg>
